<svg xmlns="http://www.w3.org/2000/svg" xmlns:xlink="http://www.w3.org/1999/xlink" width="549.972" height="139.315" viewBox="0 0 549.972 139.315">
  <defs>
    <linearGradient id="linear-gradient" y1="0.951" x2="1" y2="-0.006" gradientUnits="objectBoundingBox">
      <stop offset="0" stop-color="#048dad"/>
      <stop offset="1" stop-color="#00fff2"/>
    </linearGradient>
  </defs>
  <g id="Gruppe_740" data-name="Gruppe 740" transform="translate(-1006.681 8373)">
    <g id="Gruppe_729" data-name="Gruppe 729" transform="translate(838 -8486.762)">
      <g id="Gruppe_388" data-name="Gruppe 388" transform="translate(69 -67)">
        <g id="Gruppe_388-2" data-name="Gruppe 388" transform="translate(99.681 91.705)">
          <g id="Gruppe_363" data-name="Gruppe 363" transform="translate(0 -187.533)">
            <g id="VERAFY" transform="translate(0 276.59)">
              <path id="Pfad_24" data-name="Pfad 24" d="M20.468,0,37.389,55.6h.628L54.938,0H75.406L49.876,75.917H25.529L0,0Z" transform="translate(0 0.036)" fill="#fff"/>
              <path id="Pfad_25" data-name="Pfad 25" d="M64.611,75.9V-.02l52.9-.036-7.43,14.938H82.9V30.451h33.193L108.669,45.39H82.9V61h33.193l-7.423,14.9Z" transform="translate(26.224 0.056)" fill="#fff"/>
              <path id="Pfad_26" data-name="Pfad 26" d="M115.465,75.917V0H146.72a32.523,32.523,0,0,1,14.667,3.077,22.1,22.1,0,0,1,9.57,8.748,25.913,25.913,0,0,1,3.361,13.456A24.922,24.922,0,0,1,170.883,38.7a21.962,21.962,0,0,1-9.754,8.378,36.092,36.092,0,0,1-14.963,2.854h-6.761V35.475h3.361a19.238,19.238,0,0,0,6.91-1.075,8.7,8.7,0,0,0,4.249-3.336,10.59,10.59,0,0,0,1.441-5.783,10.782,10.782,0,0,0-1.441-5.82,8.68,8.68,0,0,0-4.249-3.484,17.781,17.781,0,0,0-6.91-1.186h-9.014V75.917Zm42.6-34.7,18.843,34.7H156.955l-17.173-34.7Z" transform="translate(46.864 0.036)" fill="#fff"/>
              <path id="Pfad_27" data-name="Pfad 27" d="M186.959,75.917H167.3L192.833,0h24.348L242.71,75.917H223.055l-17.77-56.789h-.592Z" transform="translate(67.903 0.036)" fill="#fff"/>
              <path id="Pfad_28" data-name="Pfad 28" d="M231.915,75.917V0h58.679l7.029,14.9H250.2V30.471h30.465l-7.421,14.939H250.2V75.917Z" transform="translate(94.127 0.036)" fill="#fff"/>
              <path id="Pfad_29" data-name="Pfad 29" d="M272.7,0h20.43l16,31.768h.667L325.794,0h20.432L318.554,50.562,305.9,75.917H287.723l12.652-25.355Z" transform="translate(110.682 0.036)" fill="#fff"/>
            </g>
            <path id="Pfad_86" data-name="Pfad 86" d="M9.507,9.378H8.481a1.866,1.866,0,0,1-1.956,1.635,2.248,2.248,0,0,1-1.034-.232,2.441,2.441,0,0,1-.778-.617,2.7,2.7,0,0,1-.489-.9,3.423,3.423,0,0,1-.168-1.074,3.48,3.48,0,0,1,.16-1.074,2.686,2.686,0,0,1,.465-.874,2.066,2.066,0,0,1,.762-.585,2.506,2.506,0,0,1,1.05-.208,2,2,0,0,1,1.339.441,1.879,1.879,0,0,1,.649,1.114h1.01a2.68,2.68,0,0,0-1.026-1.82,3.248,3.248,0,0,0-1.988-.617A3.818,3.818,0,0,0,5,4.841,3.128,3.128,0,0,0,3.9,5.595a3.289,3.289,0,0,0-.689,1.154,4.357,4.357,0,0,0-.24,1.475,4.182,4.182,0,0,0,.249,1.459A3.274,3.274,0,0,0,5.05,11.615a3.722,3.722,0,0,0,1.475.281,2.9,2.9,0,0,0,1.916-.673A3.2,3.2,0,0,0,9.507,9.378ZM1.378,8.192a5.286,5.286,0,0,1,.377-2A4.873,4.873,0,0,1,6.332,3.11a4.786,4.786,0,0,1,1.94.393,4.866,4.866,0,0,1,2.605,2.685,5.286,5.286,0,0,1,.377,2,5.434,5.434,0,0,1-.377,2.044,5,5,0,0,1-1.042,1.627,4.851,4.851,0,0,1-1.563,1.082,4.786,4.786,0,0,1-1.94.393,4.883,4.883,0,0,1-1.964-.393A4.828,4.828,0,0,1,2.8,11.864a5,5,0,0,1-1.042-1.627A5.434,5.434,0,0,1,1.378,8.192Zm-1.09,0a5.909,5.909,0,0,0,.481,2.4A6.031,6.031,0,0,0,2.076,12.5,5.915,5.915,0,0,0,4,13.755a6.105,6.105,0,0,0,2.333.449,6.045,6.045,0,0,0,2.325-.449A5.845,5.845,0,0,0,10.565,12.5a6.1,6.1,0,0,0,1.3-1.908,5.909,5.909,0,0,0,.481-2.4,5.773,5.773,0,0,0-.481-2.357,5.969,5.969,0,0,0-3.206-3.15,5.953,5.953,0,0,0-2.325-.457A6.012,6.012,0,0,0,4,2.685,6.092,6.092,0,0,0,2.076,3.943,5.96,5.96,0,0,0,.769,5.835,5.773,5.773,0,0,0,.288,8.192Z" transform="translate(456.619 338.366)" fill="#fff"/>
          </g>
        </g>
      </g>
      <g id="Gruppe_739" data-name="Gruppe 739" transform="translate(9)">
        <path id="Pfad_114" data-name="Pfad 114" d="M-347.008-7.628h-5.3a8.223,8.223,0,0,0,.837,3.975A7.838,7.838,0,0,0-349.117-.9,10.042,10.042,0,0,0-345.7.688a15.73,15.73,0,0,0,3.993.506A15.33,15.33,0,0,0-337.227.6a9.476,9.476,0,0,0,3.243-1.656,6.894,6.894,0,0,0,1.97-2.528,7.608,7.608,0,0,0,.663-3.173,6.1,6.1,0,0,0-.889-3.435,7.428,7.428,0,0,0-2.11-2.145,9.274,9.274,0,0,0-2.458-1.168q-1.238-.366-1.935-.506-2.336-.593-3.783-.976a14.034,14.034,0,0,1-2.267-.767,2.49,2.49,0,0,1-1.1-.837,2.238,2.238,0,0,1-.279-1.186,2.341,2.341,0,0,1,.349-1.325,3.029,3.029,0,0,1,.889-.872,3.545,3.545,0,0,1,1.2-.488A6.416,6.416,0,0,1-342.4-20.6a9.338,9.338,0,0,1,1.866.174,4.5,4.5,0,0,1,1.517.593,3.08,3.08,0,0,1,1.064,1.151,4.4,4.4,0,0,1,.471,1.848h5.3a7.646,7.646,0,0,0-.819-3.679,7.144,7.144,0,0,0-2.214-2.493,9.35,9.35,0,0,0-3.191-1.412,15.839,15.839,0,0,0-3.749-.436,12.756,12.756,0,0,0-3.348.453,9.345,9.345,0,0,0-3,1.395,7.425,7.425,0,0,0-2.145,2.354,6.519,6.519,0,0,0-.819,3.33,6.088,6.088,0,0,0,.645,2.912,6.158,6.158,0,0,0,1.691,2.005,9.344,9.344,0,0,0,2.371,1.308,23.844,23.844,0,0,0,2.72.854q1.36.384,2.685.7a16.879,16.879,0,0,1,2.371.732A5.116,5.116,0,0,1-337.3-7.768a2.184,2.184,0,0,1,.645,1.639,2.406,2.406,0,0,1-.488,1.552,3.423,3.423,0,0,1-1.22.959,5.459,5.459,0,0,1-1.569.471,10.905,10.905,0,0,1-1.569.122,8.322,8.322,0,0,1-2.092-.262,5.208,5.208,0,0,1-1.761-.8,3.961,3.961,0,0,1-1.2-1.412A4.567,4.567,0,0,1-347.008-7.628ZM-302.3.636l6.7-24.9h-5.37l-4.08,17.156h-.07l-4.254-17.156h-5.126l-4.324,16.947h-.07l-3.94-16.947h-5.475l6.59,24.9h5.544l4.15-16.947h.07L-307.744.636Zm16.738-9.624,3.243-9.136h.07l3.138,9.136Zm.523-15.273-9.415,24.9h5.509L-287-4.908h9.31L-275.8.636h5.684l-9.31-24.9ZM-260.39-13v-7.009h6a4.2,4.2,0,0,1,2.824.819,3.318,3.318,0,0,1,.941,2.633,3.474,3.474,0,0,1-.941,2.72,4.141,4.141,0,0,1-2.824.837Zm-5.475-11.263V.636h5.475V-9.093h5.475a4.074,4.074,0,0,1,2.964.907,4.945,4.945,0,0,1,1.186,2.859q.209,1.5.314,3.138a9.652,9.652,0,0,0,.558,2.824h5.475A3.664,3.664,0,0,1-245-.637a10.991,10.991,0,0,1-.279-1.587q-.087-.837-.122-1.639t-.07-1.395a14.964,14.964,0,0,0-.262-1.883,6.331,6.331,0,0,0-.61-1.726,4.737,4.737,0,0,0-1.081-1.36,4.223,4.223,0,0,0-1.674-.854v-.07a5.805,5.805,0,0,0,3.016-2.441,7.485,7.485,0,0,0,.924-3.8,6.987,6.987,0,0,0-.506-2.668,6.433,6.433,0,0,0-1.465-2.179,6.942,6.942,0,0,0-2.3-1.482,8.014,8.014,0,0,0-3.016-.54Zm27.268,0V.636h5.126v-17.47h.07l6.1,17.47h4.219l6.1-17.644h.07V.636h5.126v-24.9h-7.706L-225-7.14h-.07l-5.823-17.121Zm45.505,0V.636h18.9v-4.6h-13.425v-6.1h12.065v-4.254h-12.065v-5.335h13.146v-4.6Zm30.79,11.856L-170.984.636h6.137l5.544-8.613,5.44,8.613h6.521l-8.683-13.007,7.985-11.891h-6l-5.056,7.95-4.882-7.95h-6.346Zm24.723-.139v-7.462h4.254a11.466,11.466,0,0,1,1.813.139,4.22,4.22,0,0,1,1.534.54,2.945,2.945,0,0,1,1.064,1.133,3.983,3.983,0,0,1,.4,1.918,3.983,3.983,0,0,1-.4,1.918,2.945,2.945,0,0,1-1.064,1.133,4.22,4.22,0,0,1-1.534.54,11.466,11.466,0,0,1-1.813.139Zm-5.475-11.716V.636h5.475V-8.291h5.754a10.37,10.37,0,0,0,3.975-.68,7.437,7.437,0,0,0,2.668-1.8,6.875,6.875,0,0,0,1.5-2.563,9.469,9.469,0,0,0,.471-2.947,9.416,9.416,0,0,0-.471-2.964,6.9,6.9,0,0,0-1.5-2.546,7.437,7.437,0,0,0-2.668-1.8,10.37,10.37,0,0,0-3.975-.68Zm25.351,0V.636h17.609v-4.6h-12.135V-24.261Zm27.164,12.553a13.624,13.624,0,0,1,.366-3.173A8.4,8.4,0,0,1-89-17.618a5.926,5.926,0,0,1,2.092-1.918,6.391,6.391,0,0,1,3.138-.715,6.391,6.391,0,0,1,3.138.715,5.926,5.926,0,0,1,2.092,1.918,8.4,8.4,0,0,1,1.168,2.737,13.624,13.624,0,0,1,.366,3.173,12.674,12.674,0,0,1-.366,3.051,8.246,8.246,0,0,1-1.168,2.668,5.987,5.987,0,0,1-2.092,1.9,6.391,6.391,0,0,1-3.138.715,6.391,6.391,0,0,1-3.138-.715A5.987,5.987,0,0,1-89-5.989a8.246,8.246,0,0,1-1.168-2.668A12.674,12.674,0,0,1-90.538-11.708Zm-5.475,0a15.037,15.037,0,0,0,.837,5.074,12.117,12.117,0,0,0,2.406,4.1A11.021,11.021,0,0,0-88.917.2a12.767,12.767,0,0,0,5.143.994A12.734,12.734,0,0,0-78.613.2a11.06,11.06,0,0,0,3.836-2.737,12.117,12.117,0,0,0,2.406-4.1,15.037,15.037,0,0,0,.837-5.074,15.557,15.557,0,0,0-.837-5.178,12.439,12.439,0,0,0-2.406-4.167,11.041,11.041,0,0,0-3.836-2.79,12.543,12.543,0,0,0-5.161-1.011,12.576,12.576,0,0,0-5.143,1.011,11,11,0,0,0-3.853,2.79,12.439,12.439,0,0,0-2.406,4.167A15.557,15.557,0,0,0-96.013-11.708ZM-60.236-13v-7.009h6a4.2,4.2,0,0,1,2.824.819,3.318,3.318,0,0,1,.941,2.633,3.474,3.474,0,0,1-.941,2.72A4.141,4.141,0,0,1-54.239-13Zm-5.475-11.263V.636h5.475V-9.093h5.475a4.074,4.074,0,0,1,2.964.907,4.945,4.945,0,0,1,1.186,2.859q.209,1.5.314,3.138A9.652,9.652,0,0,0-49.74.636h5.475a3.664,3.664,0,0,1-.575-1.273,11,11,0,0,1-.279-1.587q-.087-.837-.122-1.639t-.07-1.395a14.962,14.962,0,0,0-.262-1.883,6.331,6.331,0,0,0-.61-1.726,4.737,4.737,0,0,0-1.081-1.36,4.223,4.223,0,0,0-1.674-.854v-.07a5.805,5.805,0,0,0,3.016-2.441,7.485,7.485,0,0,0,.924-3.8,6.986,6.986,0,0,0-.506-2.668,6.433,6.433,0,0,0-1.465-2.179,6.942,6.942,0,0,0-2.3-1.482,8.014,8.014,0,0,0-3.016-.54Zm27.268,0V.636h18.9v-4.6H-32.968v-6.1H-20.9v-4.254H-32.968v-5.335h13.146v-4.6ZM-8.28-13v-7.009h6a4.2,4.2,0,0,1,2.824.819,3.318,3.318,0,0,1,.941,2.633,3.474,3.474,0,0,1-.941,2.72A4.141,4.141,0,0,1-2.282-13Zm-5.475-11.263V.636H-8.28V-9.093h5.475a4.074,4.074,0,0,1,2.964.907A4.945,4.945,0,0,1,1.344-5.327q.209,1.5.314,3.138A9.653,9.653,0,0,0,2.216.636H7.691A3.664,3.664,0,0,1,7.115-.637a10.994,10.994,0,0,1-.279-1.587q-.087-.837-.122-1.639t-.07-1.395A14.963,14.963,0,0,0,6.383-7.14a6.331,6.331,0,0,0-.61-1.726,4.737,4.737,0,0,0-1.081-1.36,4.223,4.223,0,0,0-1.674-.854v-.07a5.805,5.805,0,0,0,3.016-2.441,7.485,7.485,0,0,0,.924-3.8,6.986,6.986,0,0,0-.506-2.668,6.433,6.433,0,0,0-1.465-2.179,6.942,6.942,0,0,0-2.3-1.482,8.014,8.014,0,0,0-3.016-.54Z" transform="translate(564 241.596)" fill="url(#linear-gradient)"/>
        <g id="Gruppe_738" data-name="Gruppe 738" transform="translate(-911.983 8566.077)">
          <g id="Gruppe_730" data-name="Gruppe 730" transform="translate(804.812 -8993.272)">
            <rect id="Rechteck_92" data-name="Rechteck 92" width="47.273" height="122.009" rx="8" transform="translate(816.824 633) rotate(90)" fill="#fff"/>
          </g>
          <path id="Pfad_161" data-name="Pfad 161" d="M-44.373,0V-23.273h9.309a10.575,10.575,0,0,1,4.288.764A5.726,5.726,0,0,1-28.192-20.4a5.591,5.591,0,0,1,.865,3.091,5,5,0,0,1-.549,2.4,4.7,4.7,0,0,1-1.5,1.678,6.159,6.159,0,0,1-2.161.926v.227a5.31,5.31,0,0,1,2.5.753,5.325,5.325,0,0,1,1.9,1.934,5.771,5.771,0,0,1,.727,2.967,6.057,6.057,0,0,1-.915,3.3,6.2,6.2,0,0,1-2.7,2.291,10.322,10.322,0,0,1-4.4.839Zm4.918-4.027h4.009a4.653,4.653,0,0,0,3-.788,2.6,2.6,0,0,0,.943-2.1,3.146,3.146,0,0,0-.466-1.707A3.16,3.16,0,0,0-33.29-9.789a4.608,4.608,0,0,0-2.047-.42h-4.118Zm0-9.509h3.645a4.343,4.343,0,0,0,1.8-.357,2.964,2.964,0,0,0,1.251-1.017,2.7,2.7,0,0,0,.458-1.581,2.565,2.565,0,0,0-.891-2.035,3.736,3.736,0,0,0-2.527-.774h-3.736ZM-20.027,0V-23.273H-4.345v4.055H-15.109v5.545h9.955v4.055h-9.955v5.564H-4.3V0ZM1.882-19.218v-4.055H21v4.055H13.873V0H9.009V-19.218ZM28.509,0H23.236l8.027-23.273h6.345L45.636,0H40.364L34.527-17.955h-.182Zm-.327-9.145H40.636v3.836H28.182Z" transform="translate(1560 -8325)" fill="#09090b"/>
        </g>
      </g>
    </g>
  </g>
</svg>
